<?xml version="1.0" encoding="utf-8" standalone="no"?>
<!DOCTYPE svg PUBLIC "-//W3C//DTD SVG 1.1//EN"
  "http://www.w3.org/Graphics/SVG/1.1/DTD/svg11.dtd">
<!-- Created with matplotlib (http://matplotlib.org/) -->
<svg height="345.6pt" version="1.1" viewBox="0 0 460.8 345.6" width="460.8pt" xmlns="http://www.w3.org/2000/svg" xmlns:xlink="http://www.w3.org/1999/xlink">
 <defs>
  <style type="text/css">
*{stroke-linecap:butt;stroke-linejoin:round;}
  </style>
 </defs>
 <g id="figure_1">
  <g id="patch_1">
   <path d="M 0 345.6 
L 460.8 345.6 
L 460.8 0 
L 0 0 
z
" style="fill:#ffffff;"/>
  </g>
  <g id="axes_1">
   <g id="patch_2">
    <path clip-path="url(#p237afee088)" d="M 210.297548 172.800004 
Q 311.223715 172.800004 411.031847 172.800004 
" style="fill:none;stroke:#000000;stroke-linecap:round;"/>
    <path clip-path="url(#p237afee088)" d="M 407.031847 170.800004 
L 411.031847 172.800004 
L 407.031847 174.800004 
L 407.031847 170.800004 
z
" style="stroke:#000000;stroke-linecap:round;"/>
   </g>
   <g id="patch_3">
    <path clip-path="url(#p237afee088)" d="M 210.297548 172.800004 
Q 241.028339 105.337047 271.295662 38.891536 
" style="fill:none;stroke:#000000;stroke-linecap:round;"/>
    <path clip-path="url(#p237afee088)" d="M 267.817444 41.702586 
L 271.295662 38.891536 
L 271.457571 43.36074 
L 267.817444 41.702586 
z
" style="stroke:#000000;stroke-linecap:round;"/>
   </g>
   <g id="patch_4">
    <path clip-path="url(#p237afee088)" d="M 210.297548 172.800004 
Q 128.986993 130.661847 48.669091 89.038121 
" style="fill:none;stroke:#000000;stroke-linecap:round;"/>
    <path clip-path="url(#p237afee088)" d="M 51.300277 92.654315 
L 48.669091 89.038121 
L 53.140758 89.102889 
L 51.300277 92.654315 
z
" style="stroke:#000000;stroke-linecap:round;"/>
   </g>
   <g id="patch_5">
    <path clip-path="url(#p237afee088)" d="M 210.297548 172.800004 
Q 128.986999 214.938166 48.669103 256.561897 
" style="fill:none;stroke:#000000;stroke-linecap:round;"/>
    <path clip-path="url(#p237afee088)" d="M 53.14077 256.497128 
L 48.669103 256.561897 
L 51.300288 252.945702 
L 53.14077 256.497128 
z
" style="stroke:#000000;stroke-linecap:round;"/>
   </g>
   <g id="patch_6">
    <path clip-path="url(#p237afee088)" d="M 210.297548 172.800004 
Q 241.028354 240.262958 271.295691 306.708464 
" style="fill:none;stroke:#000000;stroke-linecap:round;"/>
    <path clip-path="url(#p237afee088)" d="M 271.4576 302.23926 
L 271.295691 306.708464 
L 267.817473 303.897415 
L 271.4576 302.23926 
z
" style="stroke:#000000;stroke-linecap:round;"/>
   </g>
   <g id="PathCollection_1">
    <defs>
     <path d="M 0 8.660254 
C 2.296726 8.660254 4.499694 7.747755 6.123724 6.123724 
C 7.747755 4.499694 8.660254 2.296726 8.660254 0 
C 8.660254 -2.296726 7.747755 -4.499694 6.123724 -6.123724 
C 4.499694 -7.747755 2.296726 -8.660254 0 -8.660254 
C -2.296726 -8.660254 -4.499694 -7.747755 -6.123724 -6.123724 
C -7.747755 -4.499694 -8.660254 -2.296726 -8.660254 0 
C -8.660254 2.296726 -7.747755 4.499694 -6.123724 6.123724 
C -4.499694 7.747755 -2.296726 8.660254 0 8.660254 
z
" id="md36ed47ee1" style="stroke:#ff0000;"/>
    </defs>
    <g clip-path="url(#p237afee088)">
     <use style="fill:#ff0000;stroke:#ff0000;" x="210.297548" xlink:href="#md36ed47ee1" y="172.800004"/>
     <use style="fill:#ff0000;stroke:#ff0000;" x="420.813223" xlink:href="#md36ed47ee1" y="172.800004"/>
     <use style="fill:#ff0000;stroke:#ff0000;" x="275.350461" xlink:href="#md36ed47ee1" y="29.990083"/>
     <use style="fill:#ff0000;stroke:#ff0000;" x="39.986777" xlink:href="#md36ed47ee1" y="84.538622"/>
     <use style="fill:#ff0000;stroke:#ff0000;" x="39.986789" xlink:href="#md36ed47ee1" y="261.061396"/>
     <use style="fill:#ff0000;stroke:#ff0000;" x="275.350492" xlink:href="#md36ed47ee1" y="315.609917"/>
    </g>
   </g>
   <g id="text_1">
    <g clip-path="url(#p237afee088)">
     <!-- FXR_12 -->
     <defs>
      <path d="M 9.8125 72.90625 
L 51.703125 72.90625 
L 51.703125 64.59375 
L 19.671875 64.59375 
L 19.671875 43.109375 
L 48.578125 43.109375 
L 48.578125 34.8125 
L 19.671875 34.8125 
L 19.671875 0 
L 9.8125 0 
z
" id="DejaVuSans-46"/>
      <path d="M 6.296875 72.90625 
L 16.890625 72.90625 
L 35.015625 45.796875 
L 53.21875 72.90625 
L 63.8125 72.90625 
L 40.375 37.890625 
L 65.375 0 
L 54.78125 0 
L 34.28125 31 
L 13.625 0 
L 2.984375 0 
L 29 38.921875 
z
" id="DejaVuSans-58"/>
      <path d="M 44.390625 34.1875 
Q 47.5625 33.109375 50.5625 29.59375 
Q 53.5625 26.078125 56.59375 19.921875 
L 66.609375 0 
L 56 0 
L 46.6875 18.703125 
Q 43.0625 26.03125 39.671875 28.421875 
Q 36.28125 30.8125 30.421875 30.8125 
L 19.671875 30.8125 
L 19.671875 0 
L 9.8125 0 
L 9.8125 72.90625 
L 32.078125 72.90625 
Q 44.578125 72.90625 50.734375 67.671875 
Q 56.890625 62.453125 56.890625 51.90625 
Q 56.890625 45.015625 53.6875 40.46875 
Q 50.484375 35.9375 44.390625 34.1875 
z
M 19.671875 64.796875 
L 19.671875 38.921875 
L 32.078125 38.921875 
Q 39.203125 38.921875 42.84375 42.21875 
Q 46.484375 45.515625 46.484375 51.90625 
Q 46.484375 58.296875 42.84375 61.546875 
Q 39.203125 64.796875 32.078125 64.796875 
z
" id="DejaVuSans-52"/>
      <path d="M 50.984375 -16.609375 
L 50.984375 -23.578125 
L -0.984375 -23.578125 
L -0.984375 -16.609375 
z
" id="DejaVuSans-5f"/>
      <path d="M 12.40625 8.296875 
L 28.515625 8.296875 
L 28.515625 63.921875 
L 10.984375 60.40625 
L 10.984375 69.390625 
L 28.421875 72.90625 
L 38.28125 72.90625 
L 38.28125 8.296875 
L 54.390625 8.296875 
L 54.390625 0 
L 12.40625 0 
z
" id="DejaVuSans-31"/>
      <path d="M 19.1875 8.296875 
L 53.609375 8.296875 
L 53.609375 0 
L 7.328125 0 
L 7.328125 8.296875 
Q 12.9375 14.109375 22.625 23.890625 
Q 32.328125 33.6875 34.8125 36.53125 
Q 39.546875 41.84375 41.421875 45.53125 
Q 43.3125 49.21875 43.3125 52.78125 
Q 43.3125 58.59375 39.234375 62.25 
Q 35.15625 65.921875 28.609375 65.921875 
Q 23.96875 65.921875 18.8125 64.3125 
Q 13.671875 62.703125 7.8125 59.421875 
L 7.8125 69.390625 
Q 13.765625 71.78125 18.9375 73 
Q 24.125 74.21875 28.421875 74.21875 
Q 39.75 74.21875 46.484375 68.546875 
Q 53.21875 62.890625 53.21875 53.421875 
Q 53.21875 48.921875 51.53125 44.890625 
Q 49.859375 40.875 45.40625 35.40625 
Q 44.1875 33.984375 37.640625 27.21875 
Q 31.109375 20.453125 19.1875 8.296875 
z
" id="DejaVuSans-32"/>
     </defs>
     <g transform="translate(187.932548 175.838442)scale(0.12 -0.12)">
      <use xlink:href="#DejaVuSans-46"/>
      <use x="57.519531" xlink:href="#DejaVuSans-58"/>
      <use x="126.025391" xlink:href="#DejaVuSans-52"/>
      <use x="195.507812" xlink:href="#DejaVuSans-5f"/>
      <use x="245.507812" xlink:href="#DejaVuSans-31"/>
      <use x="309.130859" xlink:href="#DejaVuSans-32"/>
     </g>
    </g>
   </g>
   <g id="text_2">
    <g clip-path="url(#p237afee088)">
     <!-- FXR_74 -->
     <defs>
      <path d="M 8.203125 72.90625 
L 55.078125 72.90625 
L 55.078125 68.703125 
L 28.609375 0 
L 18.3125 0 
L 43.21875 64.59375 
L 8.203125 64.59375 
z
" id="DejaVuSans-37"/>
      <path d="M 37.796875 64.3125 
L 12.890625 25.390625 
L 37.796875 25.390625 
z
M 35.203125 72.90625 
L 47.609375 72.90625 
L 47.609375 25.390625 
L 58.015625 25.390625 
L 58.015625 17.1875 
L 47.609375 17.1875 
L 47.609375 0 
L 37.796875 0 
L 37.796875 17.1875 
L 4.890625 17.1875 
L 4.890625 26.703125 
z
" id="DejaVuSans-34"/>
     </defs>
     <g transform="translate(398.448223 175.777504)scale(0.12 -0.12)">
      <use xlink:href="#DejaVuSans-46"/>
      <use x="57.519531" xlink:href="#DejaVuSans-58"/>
      <use x="126.025391" xlink:href="#DejaVuSans-52"/>
      <use x="195.507812" xlink:href="#DejaVuSans-5f"/>
      <use x="245.507812" xlink:href="#DejaVuSans-37"/>
      <use x="309.130859" xlink:href="#DejaVuSans-34"/>
     </g>
    </g>
   </g>
   <g id="text_3">
    <g clip-path="url(#p237afee088)">
     <!-- FXR_76 -->
     <defs>
      <path d="M 33.015625 40.375 
Q 26.375 40.375 22.484375 35.828125 
Q 18.609375 31.296875 18.609375 23.390625 
Q 18.609375 15.53125 22.484375 10.953125 
Q 26.375 6.390625 33.015625 6.390625 
Q 39.65625 6.390625 43.53125 10.953125 
Q 47.40625 15.53125 47.40625 23.390625 
Q 47.40625 31.296875 43.53125 35.828125 
Q 39.65625 40.375 33.015625 40.375 
z
M 52.59375 71.296875 
L 52.59375 62.3125 
Q 48.875 64.0625 45.09375 64.984375 
Q 41.3125 65.921875 37.59375 65.921875 
Q 27.828125 65.921875 22.671875 59.328125 
Q 17.53125 52.734375 16.796875 39.40625 
Q 19.671875 43.65625 24.015625 45.921875 
Q 28.375 48.1875 33.59375 48.1875 
Q 44.578125 48.1875 50.953125 41.515625 
Q 57.328125 34.859375 57.328125 23.390625 
Q 57.328125 12.15625 50.6875 5.359375 
Q 44.046875 -1.421875 33.015625 -1.421875 
Q 20.359375 -1.421875 13.671875 8.265625 
Q 6.984375 17.96875 6.984375 36.375 
Q 6.984375 53.65625 15.1875 63.9375 
Q 23.390625 74.21875 37.203125 74.21875 
Q 40.921875 74.21875 44.703125 73.484375 
Q 48.484375 72.75 52.59375 71.296875 
z
" id="DejaVuSans-36"/>
     </defs>
     <g transform="translate(252.985461 33.02852)scale(0.12 -0.12)">
      <use xlink:href="#DejaVuSans-46"/>
      <use x="57.519531" xlink:href="#DejaVuSans-58"/>
      <use x="126.025391" xlink:href="#DejaVuSans-52"/>
      <use x="195.507812" xlink:href="#DejaVuSans-5f"/>
      <use x="245.507812" xlink:href="#DejaVuSans-37"/>
      <use x="309.130859" xlink:href="#DejaVuSans-36"/>
     </g>
    </g>
   </g>
   <g id="text_4">
    <g clip-path="url(#p237afee088)">
     <!-- FXR_84 -->
     <defs>
      <path d="M 31.78125 34.625 
Q 24.75 34.625 20.71875 30.859375 
Q 16.703125 27.09375 16.703125 20.515625 
Q 16.703125 13.921875 20.71875 10.15625 
Q 24.75 6.390625 31.78125 6.390625 
Q 38.8125 6.390625 42.859375 10.171875 
Q 46.921875 13.96875 46.921875 20.515625 
Q 46.921875 27.09375 42.890625 30.859375 
Q 38.875 34.625 31.78125 34.625 
z
M 21.921875 38.8125 
Q 15.578125 40.375 12.03125 44.71875 
Q 8.5 49.078125 8.5 55.328125 
Q 8.5 64.0625 14.71875 69.140625 
Q 20.953125 74.21875 31.78125 74.21875 
Q 42.671875 74.21875 48.875 69.140625 
Q 55.078125 64.0625 55.078125 55.328125 
Q 55.078125 49.078125 51.53125 44.71875 
Q 48 40.375 41.703125 38.8125 
Q 48.828125 37.15625 52.796875 32.3125 
Q 56.78125 27.484375 56.78125 20.515625 
Q 56.78125 9.90625 50.3125 4.234375 
Q 43.84375 -1.421875 31.78125 -1.421875 
Q 19.734375 -1.421875 13.25 4.234375 
Q 6.78125 9.90625 6.78125 20.515625 
Q 6.78125 27.484375 10.78125 32.3125 
Q 14.796875 37.15625 21.921875 38.8125 
z
M 18.3125 54.390625 
Q 18.3125 48.734375 21.84375 45.5625 
Q 25.390625 42.390625 31.78125 42.390625 
Q 38.140625 42.390625 41.71875 45.5625 
Q 45.3125 48.734375 45.3125 54.390625 
Q 45.3125 60.0625 41.71875 63.234375 
Q 38.140625 66.40625 31.78125 66.40625 
Q 25.390625 66.40625 21.84375 63.234375 
Q 18.3125 60.0625 18.3125 54.390625 
z
" id="DejaVuSans-38"/>
     </defs>
     <g transform="translate(17.621777 87.57706)scale(0.12 -0.12)">
      <use xlink:href="#DejaVuSans-46"/>
      <use x="57.519531" xlink:href="#DejaVuSans-58"/>
      <use x="126.025391" xlink:href="#DejaVuSans-52"/>
      <use x="195.507812" xlink:href="#DejaVuSans-5f"/>
      <use x="245.507812" xlink:href="#DejaVuSans-38"/>
      <use x="309.130859" xlink:href="#DejaVuSans-34"/>
     </g>
    </g>
   </g>
   <g id="text_5">
    <g clip-path="url(#p237afee088)">
     <!-- FXR_85 -->
     <defs>
      <path d="M 10.796875 72.90625 
L 49.515625 72.90625 
L 49.515625 64.59375 
L 19.828125 64.59375 
L 19.828125 46.734375 
Q 21.96875 47.46875 24.109375 47.828125 
Q 26.265625 48.1875 28.421875 48.1875 
Q 40.625 48.1875 47.75 41.5 
Q 54.890625 34.8125 54.890625 23.390625 
Q 54.890625 11.625 47.5625 5.09375 
Q 40.234375 -1.421875 26.90625 -1.421875 
Q 22.3125 -1.421875 17.546875 -0.640625 
Q 12.796875 0.140625 7.71875 1.703125 
L 7.71875 11.625 
Q 12.109375 9.234375 16.796875 8.0625 
Q 21.484375 6.890625 26.703125 6.890625 
Q 35.15625 6.890625 40.078125 11.328125 
Q 45.015625 15.765625 45.015625 23.390625 
Q 45.015625 31 40.078125 35.4375 
Q 35.15625 39.890625 26.703125 39.890625 
Q 22.75 39.890625 18.8125 39.015625 
Q 14.890625 38.140625 10.796875 36.28125 
z
" id="DejaVuSans-35"/>
     </defs>
     <g transform="translate(17.621789 264.099833)scale(0.12 -0.12)">
      <use xlink:href="#DejaVuSans-46"/>
      <use x="57.519531" xlink:href="#DejaVuSans-58"/>
      <use x="126.025391" xlink:href="#DejaVuSans-52"/>
      <use x="195.507812" xlink:href="#DejaVuSans-5f"/>
      <use x="245.507812" xlink:href="#DejaVuSans-38"/>
      <use x="309.130859" xlink:href="#DejaVuSans-35"/>
     </g>
    </g>
   </g>
   <g id="text_6">
    <g clip-path="url(#p237afee088)">
     <!-- FXR_88 -->
     <g transform="translate(252.985492 318.648355)scale(0.12 -0.12)">
      <use xlink:href="#DejaVuSans-46"/>
      <use x="57.519531" xlink:href="#DejaVuSans-58"/>
      <use x="126.025391" xlink:href="#DejaVuSans-52"/>
      <use x="195.507812" xlink:href="#DejaVuSans-5f"/>
      <use x="245.507812" xlink:href="#DejaVuSans-38"/>
      <use x="309.130859" xlink:href="#DejaVuSans-38"/>
     </g>
    </g>
   </g>
  </g>
 </g>
 <defs>
  <clipPath id="p237afee088">
   <rect height="345.6" width="460.8" x="0" y="0"/>
  </clipPath>
 </defs>
</svg>
